<svg xmlns="http://www.w3.org/2000/svg" width="50" height="50" viewBox="411.896 802.168 50 50">
	<path fill="#484848" d="M459.577 843.393l-12.044-12.045c1.719-2.807 2.762-6.078 2.762-9.614 0-10.251-8.315-18.565-18.565-18.565-10.251 0-18.564 8.314-18.564 18.565 0 10.249 8.313 18.564 18.564 18.564 3.537 0 6.809-1.042 9.615-2.756l12.044 12.038c.847.847 2.248.84 3.095 0l3.094-3.094a2.203 2.203 0 0 0-.001-3.093zm-27.848-9.283c-6.835 0-12.376-5.542-12.376-12.377s5.541-12.377 12.376-12.377 12.377 5.542 12.377 12.377-5.542 12.377-12.377 12.377z"/>
</svg>
